<svg xmlns="http://www.w3.org/2000/svg" viewBox="0 0 400 400" width="400" height="400"><defs><linearGradient id="plate" x1="0" y1="1" x2="0" y2="0"><stop offset="0" stop-color="#d9480f"/><stop offset=".6" stop-color="#ff922b"/><stop offset="1" stop-color="#ffd43b"/></linearGradient><filter id="gl7" x="-20%" y="-20%" width="140%" height="140%"><feGaussianBlur stdDeviation="1.4" result="b"/><feMerge><feMergeNode in="b"/><feMergeNode in="SourceGraphic"/></feMerge></filter></defs><path transform="translate(306.0 190.8) rotate(90)" fill="url(#plate)" stroke="#7c2d12" stroke-width="1.3" stroke-linejoin="round" d="M-12.3 0 L0 -30.6 L12.3 0 Z"/><path transform="translate(306.0 225.7) rotate(90)" fill="url(#plate)" stroke="#7c2d12" stroke-width="1.3" stroke-linejoin="round" d="M-10.8 0 L0 -27.1 L10.8 0 Z"/><path transform="translate(305.1 250.7) rotate(95)" fill="url(#plate)" stroke="#7c2d12" stroke-width="1.3" stroke-linejoin="round" d="M-11.9 0 L0 -29.6 L11.9 0 Z"/><path transform="translate(294.0 285.3) rotate(127)" fill="url(#plate)" stroke="#7c2d12" stroke-width="1.3" stroke-linejoin="round" d="M-9.1 0 L0 -22.8 L9.1 0 Z"/><path transform="translate(263.6 303.3) rotate(168)" fill="url(#plate)" stroke="#7c2d12" stroke-width="1.3" stroke-linejoin="round" d="M-14.7 0 L0 -36.7 L14.7 0 Z"/><path transform="translate(235.1 305.9) rotate(179)" fill="url(#plate)" stroke="#7c2d12" stroke-width="1.3" stroke-linejoin="round" d="M-9.1 0 L0 -22.7 L9.1 0 Z"/><path transform="translate(214.2 306.0) rotate(180)" fill="url(#plate)" stroke="#7c2d12" stroke-width="1.3" stroke-linejoin="round" d="M-15.5 0 L0 -38.7 L15.5 0 Z"/><path transform="translate(187.9 306.0) rotate(180)" fill="url(#plate)" stroke="#7c2d12" stroke-width="1.3" stroke-linejoin="round" d="M-10.3 0 L0 -25.8 L10.3 0 Z"/><path transform="translate(164.4 305.8) rotate(181)" fill="url(#plate)" stroke="#7c2d12" stroke-width="1.3" stroke-linejoin="round" d="M-12.8 0 L0 -32.0 L12.8 0 Z"/><path transform="translate(131.3 302.0) rotate(196)" fill="url(#plate)" stroke="#7c2d12" stroke-width="1.3" stroke-linejoin="round" d="M-10.6 0 L0 -26.6 L10.6 0 Z"/><path transform="translate(102.6 280.1) rotate(241)" fill="url(#plate)" stroke="#7c2d12" stroke-width="1.3" stroke-linejoin="round" d="M-15.3 0 L0 -38.3 L15.3 0 Z"/><path transform="translate(95.1 253.1) rotate(264)" fill="url(#plate)" stroke="#7c2d12" stroke-width="1.3" stroke-linejoin="round" d="M-9.6 0 L0 -24.1 L9.6 0 Z"/><path transform="translate(94.0 227.2) rotate(270)" fill="url(#plate)" stroke="#7c2d12" stroke-width="1.3" stroke-linejoin="round" d="M-12.1 0 L0 -30.4 L12.1 0 Z"/><path transform="translate(94.0 200.0) rotate(270)" fill="url(#plate)" stroke="#7c2d12" stroke-width="1.3" stroke-linejoin="round" d="M-8.5 0 L0 -21.1 L8.5 0 Z"/><path transform="translate(94.0 172.8) rotate(-90)" fill="url(#plate)" stroke="#7c2d12" stroke-width="1.3" stroke-linejoin="round" d="M-14.9 0 L0 -37.2 L14.9 0 Z"/><path transform="translate(95.3 145.4) rotate(-83)" fill="url(#plate)" stroke="#7c2d12" stroke-width="1.3" stroke-linejoin="round" d="M-10.7 0 L0 -26.8 L10.7 0 Z"/><path transform="translate(102.9 119.3) rotate(-60)" fill="url(#plate)" stroke="#7c2d12" stroke-width="1.3" stroke-linejoin="round" d="M-14.2 0 L0 -35.6 L14.2 0 Z"/><path transform="translate(130.6 98.2) rotate(-17)" fill="url(#plate)" stroke="#7c2d12" stroke-width="1.3" stroke-linejoin="round" d="M-10.4 0 L0 -26.0 L10.4 0 Z"/><path transform="translate(159.4 94.3) rotate(-2)" fill="url(#plate)" stroke="#7c2d12" stroke-width="1.3" stroke-linejoin="round" d="M-14.8 0 L0 -37.0 L14.8 0 Z"/><path transform="translate(184.0 94.0) rotate(-0)" fill="url(#plate)" stroke="#7c2d12" stroke-width="1.3" stroke-linejoin="round" d="M-8.8 0 L0 -22.1 L8.8 0 Z"/><path transform="translate(200.0 94.0) rotate(0)" fill="url(#plate)" stroke="#7c2d12" stroke-width="1.3" stroke-linejoin="round" d="M-12.4 0 L0 -31.1 L12.4 0 Z"/><path transform="translate(235.6 94.2) rotate(1)" fill="url(#plate)" stroke="#7c2d12" stroke-width="1.3" stroke-linejoin="round" d="M-10.7 0 L0 -26.6 L10.7 0 Z"/><path transform="translate(266.7 97.4) rotate(14)" fill="url(#plate)" stroke="#7c2d12" stroke-width="1.3" stroke-linejoin="round" d="M-15.0 0 L0 -37.5 L15.0 0 Z"/><path transform="translate(295.4 116.6) rotate(56)" fill="url(#plate)" stroke="#7c2d12" stroke-width="1.3" stroke-linejoin="round" d="M-9.4 0 L0 -23.5 L9.4 0 Z"/><path transform="translate(305.2 150.9) rotate(86)" fill="url(#plate)" stroke="#7c2d12" stroke-width="1.3" stroke-linejoin="round" d="M-12.7 0 L0 -31.7 L12.7 0 Z"/><path transform="translate(306.0 172.8) rotate(90)" fill="url(#plate)" stroke="#7c2d12" stroke-width="1.3" stroke-linejoin="round" d="M-8.4 0 L0 -21.0 L8.4 0 Z"/><g transform="translate(307.0 190.8) rotate(85)" fill="#f6edd3" stroke="#8a7a55" stroke-width="1.1"><rect x="-12.5" y="-2.2" width="25.1" height="4.4" rx="2"/><circle cx="-12.5" cy="-2.6" r="3.4"/><circle cx="-12.5" cy="2.6" r="3.4"/><circle cx="12.5" cy="-2.6" r="3.4"/><circle cx="12.5" cy="2.6" r="3.4"/></g><g transform="translate(306.9 232.4) rotate(78)" fill="#f6edd3" stroke="#8a7a55" stroke-width="1.1"><rect x="-13.4" y="-2.2" width="26.8" height="4.4" rx="2"/><circle cx="-13.4" cy="-2.6" r="3.4"/><circle cx="-13.4" cy="2.6" r="3.4"/><circle cx="13.4" cy="-2.6" r="3.4"/><circle cx="13.4" cy="2.6" r="3.4"/></g><g transform="translate(304.8 260.7) rotate(112)" fill="#f6edd3" stroke="#8a7a55" stroke-width="1.1"><rect x="-14.1" y="-2.2" width="28.2" height="4.4" rx="2"/><circle cx="-14.1" cy="-2.6" r="3.4"/><circle cx="-14.1" cy="2.6" r="3.4"/><circle cx="14.1" cy="-2.6" r="3.4"/><circle cx="14.1" cy="2.6" r="3.4"/></g><g transform="translate(283.2 296.7) rotate(147)" fill="#f6edd3" stroke="#8a7a55" stroke-width="1.1"><rect x="-12.5" y="-2.2" width="25.0" height="4.4" rx="2"/><circle cx="-12.5" cy="-2.6" r="3.4"/><circle cx="-12.5" cy="2.6" r="3.4"/><circle cx="12.5" cy="-2.6" r="3.4"/><circle cx="12.5" cy="2.6" r="3.4"/></g><g transform="translate(249.1 306.2) rotate(182)" fill="#f6edd3" stroke="#8a7a55" stroke-width="1.1"><rect x="-11.5" y="-2.2" width="23.0" height="4.4" rx="2"/><circle cx="-11.5" cy="-2.6" r="3.4"/><circle cx="-11.5" cy="2.6" r="3.4"/><circle cx="11.5" cy="-2.6" r="3.4"/><circle cx="11.5" cy="2.6" r="3.4"/></g><g transform="translate(216.0 307.0) rotate(197)" fill="#f6edd3" stroke="#8a7a55" stroke-width="1.1"><rect x="-13.5" y="-2.2" width="27.1" height="4.4" rx="2"/><circle cx="-13.5" cy="-2.6" r="3.4"/><circle cx="-13.5" cy="2.6" r="3.4"/><circle cx="13.5" cy="-2.6" r="3.4"/><circle cx="13.5" cy="2.6" r="3.4"/></g><g transform="translate(187.9 307.0) rotate(168)" fill="#f6edd3" stroke="#8a7a55" stroke-width="1.1"><rect x="-12.4" y="-2.2" width="24.7" height="4.4" rx="2"/><circle cx="-12.4" cy="-2.6" r="3.4"/><circle cx="-12.4" cy="2.6" r="3.4"/><circle cx="12.4" cy="-2.6" r="3.4"/><circle cx="12.4" cy="2.6" r="3.4"/></g><g transform="translate(152.9 306.4) rotate(183)" fill="#f6edd3" stroke="#8a7a55" stroke-width="1.1"><rect x="-13.8" y="-2.2" width="27.6" height="4.4" rx="2"/><circle cx="-13.8" cy="-2.6" r="3.4"/><circle cx="-13.8" cy="2.6" r="3.4"/><circle cx="13.8" cy="-2.6" r="3.4"/><circle cx="13.8" cy="2.6" r="3.4"/></g><g transform="translate(118.5 297.7) rotate(219)" fill="#f6edd3" stroke="#8a7a55" stroke-width="1.1"><rect x="-11.8" y="-2.2" width="23.7" height="4.4" rx="2"/><circle cx="-11.8" cy="-2.6" r="3.4"/><circle cx="-11.8" cy="2.6" r="3.4"/><circle cx="11.8" cy="-2.6" r="3.4"/><circle cx="11.8" cy="2.6" r="3.4"/></g><g transform="translate(95.7 263.8) rotate(278)" fill="#f6edd3" stroke="#8a7a55" stroke-width="1.1"><rect x="-14.1" y="-2.2" width="28.1" height="4.4" rx="2"/><circle cx="-14.1" cy="-2.6" r="3.4"/><circle cx="-14.1" cy="2.6" r="3.4"/><circle cx="14.1" cy="-2.6" r="3.4"/><circle cx="14.1" cy="2.6" r="3.4"/></g><g transform="translate(93.1 231.8) rotate(285)" fill="#f6edd3" stroke="#8a7a55" stroke-width="1.1"><rect x="-12.7" y="-2.2" width="25.3" height="4.4" rx="2"/><circle cx="-12.7" cy="-2.6" r="3.4"/><circle cx="-12.7" cy="2.6" r="3.4"/><circle cx="12.7" cy="-2.6" r="3.4"/><circle cx="12.7" cy="2.6" r="3.4"/></g><g transform="translate(93.0 209.2) rotate(269)" fill="#f6edd3" stroke="#8a7a55" stroke-width="1.1"><rect x="-12.4" y="-2.2" width="24.7" height="4.4" rx="2"/><circle cx="-12.4" cy="-2.6" r="3.4"/><circle cx="-12.4" cy="2.6" r="3.4"/><circle cx="12.4" cy="-2.6" r="3.4"/><circle cx="12.4" cy="2.6" r="3.4"/></g><g transform="translate(93.1 167.6) rotate(-68)" fill="#f6edd3" stroke="#8a7a55" stroke-width="1.1"><rect x="-12.6" y="-2.2" width="25.2" height="4.4" rx="2"/><circle cx="-12.6" cy="-2.6" r="3.4"/><circle cx="-12.6" cy="2.6" r="3.4"/><circle cx="12.6" cy="-2.6" r="3.4"/><circle cx="12.6" cy="2.6" r="3.4"/></g><g transform="translate(96.2 134.0) rotate(-56)" fill="#f6edd3" stroke="#8a7a55" stroke-width="1.1"><rect x="-11.6" y="-2.2" width="23.3" height="4.4" rx="2"/><circle cx="-11.6" cy="-2.6" r="3.4"/><circle cx="-11.6" cy="2.6" r="3.4"/><circle cx="11.6" cy="-2.6" r="3.4"/><circle cx="11.6" cy="2.6" r="3.4"/></g><g transform="translate(120.0 101.4) rotate(-49)" fill="#f6edd3" stroke="#8a7a55" stroke-width="1.1"><rect x="-12.6" y="-2.2" width="25.2" height="4.4" rx="2"/><circle cx="-12.6" cy="-2.6" r="3.4"/><circle cx="-12.6" cy="2.6" r="3.4"/><circle cx="12.6" cy="-2.6" r="3.4"/><circle cx="12.6" cy="2.6" r="3.4"/></g><g transform="translate(151.9 93.7) rotate(-17)" fill="#f6edd3" stroke="#8a7a55" stroke-width="1.1"><rect x="-11.9" y="-2.2" width="23.8" height="4.4" rx="2"/><circle cx="-11.9" cy="-2.6" r="3.4"/><circle cx="-11.9" cy="2.6" r="3.4"/><circle cx="11.9" cy="-2.6" r="3.4"/><circle cx="11.9" cy="2.6" r="3.4"/></g><g transform="translate(182.5 93.0) rotate(-20)" fill="#f6edd3" stroke="#8a7a55" stroke-width="1.1"><rect x="-11.5" y="-2.2" width="22.9" height="4.4" rx="2"/><circle cx="-11.5" cy="-2.6" r="3.4"/><circle cx="-11.5" cy="2.6" r="3.4"/><circle cx="11.5" cy="-2.6" r="3.4"/><circle cx="11.5" cy="2.6" r="3.4"/></g><g transform="translate(212.1 93.0) rotate(-3)" fill="#f6edd3" stroke="#8a7a55" stroke-width="1.1"><rect x="-11.3" y="-2.2" width="22.7" height="4.4" rx="2"/><circle cx="-11.3" cy="-2.6" r="3.4"/><circle cx="-11.3" cy="2.6" r="3.4"/><circle cx="11.3" cy="-2.6" r="3.4"/><circle cx="11.3" cy="2.6" r="3.4"/></g><g transform="translate(248.1 93.7) rotate(-5)" fill="#f6edd3" stroke="#8a7a55" stroke-width="1.1"><rect x="-13.0" y="-2.2" width="26.1" height="4.4" rx="2"/><circle cx="-13.0" cy="-2.6" r="3.4"/><circle cx="-13.0" cy="2.6" r="3.4"/><circle cx="13.0" cy="-2.6" r="3.4"/><circle cx="13.0" cy="2.6" r="3.4"/></g><g transform="translate(285.0 104.5) rotate(25)" fill="#f6edd3" stroke="#8a7a55" stroke-width="1.1"><rect x="-12.1" y="-2.2" width="24.1" height="4.4" rx="2"/><circle cx="-12.1" cy="-2.6" r="3.4"/><circle cx="-12.1" cy="2.6" r="3.4"/><circle cx="12.1" cy="-2.6" r="3.4"/><circle cx="12.1" cy="2.6" r="3.4"/></g><g transform="translate(304.0 135.0) rotate(72)" fill="#f6edd3" stroke="#8a7a55" stroke-width="1.1"><rect x="-11.9" y="-2.2" width="23.8" height="4.4" rx="2"/><circle cx="-11.9" cy="-2.6" r="3.4"/><circle cx="-11.9" cy="2.6" r="3.4"/><circle cx="11.9" cy="-2.6" r="3.4"/><circle cx="11.9" cy="2.6" r="3.4"/></g><g transform="translate(306.9 170.0) rotate(92)" fill="#f6edd3" stroke="#8a7a55" stroke-width="1.1"><rect x="-13.6" y="-2.2" width="27.1" height="4.4" rx="2"/><circle cx="-13.6" cy="-2.6" r="3.4"/><circle cx="-13.6" cy="2.6" r="3.4"/><circle cx="13.6" cy="-2.6" r="3.4"/><circle cx="13.6" cy="2.6" r="3.4"/></g><g transform="translate(319.0 190.8) rotate(85)" fill="#f6edd3" stroke="#8a7a55" stroke-width="1.1"><rect x="-8.8" y="-2.2" width="17.5" height="4.4" rx="2"/><circle cx="-8.8" cy="-2.6" r="3.4"/><circle cx="-8.8" cy="2.6" r="3.4"/><circle cx="8.8" cy="-2.6" r="3.4"/><circle cx="8.8" cy="2.6" r="3.4"/></g><g transform="translate(319.0 225.8) rotate(101)" fill="#f6edd3" stroke="#8a7a55" stroke-width="1.1"><rect x="-8.9" y="-2.2" width="17.7" height="4.4" rx="2"/><circle cx="-8.9" cy="-2.6" r="3.4"/><circle cx="-8.9" cy="2.6" r="3.4"/><circle cx="8.9" cy="-2.6" r="3.4"/><circle cx="8.9" cy="2.6" r="3.4"/></g><g transform="translate(317.9 253.5) rotate(82)" fill="#f6edd3" stroke="#8a7a55" stroke-width="1.1"><rect x="-10.5" y="-2.2" width="21.0" height="4.4" rx="2"/><circle cx="-10.5" cy="-2.6" r="3.4"/><circle cx="-10.5" cy="2.6" r="3.4"/><circle cx="10.5" cy="-2.6" r="3.4"/><circle cx="10.5" cy="2.6" r="3.4"/></g><g transform="translate(304.6 292.9) rotate(107)" fill="#f6edd3" stroke="#8a7a55" stroke-width="1.1"><rect x="-10.7" y="-2.2" width="21.4" height="4.4" rx="2"/><circle cx="-10.7" cy="-2.6" r="3.4"/><circle cx="-10.7" cy="2.6" r="3.4"/><circle cx="10.7" cy="-2.6" r="3.4"/><circle cx="10.7" cy="2.6" r="3.4"/></g><g transform="translate(268.8 315.4) rotate(156)" fill="#f6edd3" stroke="#8a7a55" stroke-width="1.1"><rect x="-11.0" y="-2.2" width="22.0" height="4.4" rx="2"/><circle cx="-11.0" cy="-2.6" r="3.4"/><circle cx="-11.0" cy="2.6" r="3.4"/><circle cx="11.0" cy="-2.6" r="3.4"/><circle cx="11.0" cy="2.6" r="3.4"/></g><g transform="translate(240.6 318.7) rotate(161)" fill="#f6edd3" stroke="#8a7a55" stroke-width="1.1"><rect x="-8.7" y="-2.2" width="17.5" height="4.4" rx="2"/><circle cx="-8.7" cy="-2.6" r="3.4"/><circle cx="-8.7" cy="2.6" r="3.4"/><circle cx="8.7" cy="-2.6" r="3.4"/><circle cx="8.7" cy="2.6" r="3.4"/></g><g transform="translate(214.3 319.0) rotate(179)" fill="#f6edd3" stroke="#8a7a55" stroke-width="1.1"><rect x="-9.3" y="-2.2" width="18.5" height="4.4" rx="2"/><circle cx="-9.3" cy="-2.6" r="3.4"/><circle cx="-9.3" cy="2.6" r="3.4"/><circle cx="9.3" cy="-2.6" r="3.4"/><circle cx="9.3" cy="2.6" r="3.4"/></g><g transform="translate(185.7 319.0) rotate(186)" fill="#f6edd3" stroke="#8a7a55" stroke-width="1.1"><rect x="-9.3" y="-2.2" width="18.5" height="4.4" rx="2"/><circle cx="-9.3" cy="-2.6" r="3.4"/><circle cx="-9.3" cy="2.6" r="3.4"/><circle cx="9.3" cy="-2.6" r="3.4"/><circle cx="9.3" cy="2.6" r="3.4"/></g><g transform="translate(158.9 318.7) rotate(175)" fill="#f6edd3" stroke="#8a7a55" stroke-width="1.1"><rect x="-8.5" y="-2.2" width="17.1" height="4.4" rx="2"/><circle cx="-8.5" cy="-2.6" r="3.4"/><circle cx="-8.5" cy="2.6" r="3.4"/><circle cx="8.5" cy="-2.6" r="3.4"/><circle cx="8.5" cy="2.6" r="3.4"/></g><g transform="translate(127.9 314.6) rotate(178)" fill="#f6edd3" stroke="#8a7a55" stroke-width="1.1"><rect x="-8.5" y="-2.2" width="17.0" height="4.4" rx="2"/><circle cx="-8.5" cy="-2.6" r="3.4"/><circle cx="-8.5" cy="2.6" r="3.4"/><circle cx="8.5" cy="-2.6" r="3.4"/><circle cx="8.5" cy="2.6" r="3.4"/></g><g transform="translate(95.4 292.9) rotate(232)" fill="#f6edd3" stroke="#8a7a55" stroke-width="1.1"><rect x="-10.7" y="-2.2" width="21.4" height="4.4" rx="2"/><circle cx="-10.7" cy="-2.6" r="3.4"/><circle cx="-10.7" cy="2.6" r="3.4"/><circle cx="10.7" cy="-2.6" r="3.4"/><circle cx="10.7" cy="2.6" r="3.4"/></g><g transform="translate(82.2 254.5) rotate(266)" fill="#f6edd3" stroke="#8a7a55" stroke-width="1.1"><rect x="-9.3" y="-2.2" width="18.6" height="4.4" rx="2"/><circle cx="-9.3" cy="-2.6" r="3.4"/><circle cx="-9.3" cy="2.6" r="3.4"/><circle cx="9.3" cy="-2.6" r="3.4"/><circle cx="9.3" cy="2.6" r="3.4"/></g><g transform="translate(81.0 225.8) rotate(268)" fill="#f6edd3" stroke="#8a7a55" stroke-width="1.1"><rect x="-10.4" y="-2.2" width="20.8" height="4.4" rx="2"/><circle cx="-10.4" cy="-2.6" r="3.4"/><circle cx="-10.4" cy="2.6" r="3.4"/><circle cx="10.4" cy="-2.6" r="3.4"/><circle cx="10.4" cy="2.6" r="3.4"/></g><g transform="translate(81.0 209.2) rotate(286)" fill="#f6edd3" stroke="#8a7a55" stroke-width="1.1"><rect x="-8.7" y="-2.2" width="17.5" height="4.4" rx="2"/><circle cx="-8.7" cy="-2.6" r="3.4"/><circle cx="-8.7" cy="2.6" r="3.4"/><circle cx="8.7" cy="-2.6" r="3.4"/><circle cx="8.7" cy="2.6" r="3.4"/></g><g transform="translate(81.0 173.5) rotate(-83)" fill="#f6edd3" stroke="#8a7a55" stroke-width="1.1"><rect x="-9.2" y="-2.2" width="18.5" height="4.4" rx="2"/><circle cx="-9.2" cy="-2.6" r="3.4"/><circle cx="-9.2" cy="2.6" r="3.4"/><circle cx="9.2" cy="-2.6" r="3.4"/><circle cx="9.2" cy="2.6" r="3.4"/></g><g transform="translate(82.1 146.8) rotate(-66)" fill="#f6edd3" stroke="#8a7a55" stroke-width="1.1"><rect x="-10.3" y="-2.2" width="20.6" height="4.4" rx="2"/><circle cx="-10.3" cy="-2.6" r="3.4"/><circle cx="-10.3" cy="2.6" r="3.4"/><circle cx="10.3" cy="-2.6" r="3.4"/><circle cx="10.3" cy="2.6" r="3.4"/></g><g transform="translate(95.7 106.7) rotate(-49)" fill="#f6edd3" stroke="#8a7a55" stroke-width="1.1"><rect x="-10.2" y="-2.2" width="20.3" height="4.4" rx="2"/><circle cx="-10.2" cy="-2.6" r="3.4"/><circle cx="-10.2" cy="2.6" r="3.4"/><circle cx="10.2" cy="-2.6" r="3.4"/><circle cx="10.2" cy="2.6" r="3.4"/></g><g transform="translate(126.1 86.0) rotate(-6)" fill="#f6edd3" stroke="#8a7a55" stroke-width="1.1"><rect x="-8.7" y="-2.2" width="17.4" height="4.4" rx="2"/><circle cx="-8.7" cy="-2.6" r="3.4"/><circle cx="-8.7" cy="2.6" r="3.4"/><circle cx="8.7" cy="-2.6" r="3.4"/><circle cx="8.7" cy="2.6" r="3.4"/></g><g transform="translate(162.6 81.2) rotate(-9)" fill="#f6edd3" stroke="#8a7a55" stroke-width="1.1"><rect x="-8.6" y="-2.2" width="17.2" height="4.4" rx="2"/><circle cx="-8.6" cy="-2.6" r="3.4"/><circle cx="-8.6" cy="2.6" r="3.4"/><circle cx="8.6" cy="-2.6" r="3.4"/><circle cx="8.6" cy="2.6" r="3.4"/></g><g transform="translate(184.0 81.0) rotate(-15)" fill="#f6edd3" stroke="#8a7a55" stroke-width="1.1"><rect x="-10.8" y="-2.2" width="21.6" height="4.4" rx="2"/><circle cx="-10.8" cy="-2.6" r="3.4"/><circle cx="-10.8" cy="2.6" r="3.4"/><circle cx="10.8" cy="-2.6" r="3.4"/><circle cx="10.8" cy="2.6" r="3.4"/></g><g transform="translate(212.1 81.0) rotate(3)" fill="#f6edd3" stroke="#8a7a55" stroke-width="1.1"><rect x="-9.0" y="-2.2" width="18.0" height="4.4" rx="2"/><circle cx="-9.0" cy="-2.6" r="3.4"/><circle cx="-9.0" cy="2.6" r="3.4"/><circle cx="9.0" cy="-2.6" r="3.4"/><circle cx="9.0" cy="2.6" r="3.4"/></g><g transform="translate(236.9 81.2) rotate(-8)" fill="#f6edd3" stroke="#8a7a55" stroke-width="1.1"><rect x="-9.5" y="-2.2" width="19.1" height="4.4" rx="2"/><circle cx="-9.5" cy="-2.6" r="3.4"/><circle cx="-9.5" cy="2.6" r="3.4"/><circle cx="9.5" cy="-2.6" r="3.4"/><circle cx="9.5" cy="2.6" r="3.4"/></g><g transform="translate(269.3 84.7) rotate(-4)" fill="#f6edd3" stroke="#8a7a55" stroke-width="1.1"><rect x="-10.5" y="-2.2" width="21.1" height="4.4" rx="2"/><circle cx="-10.5" cy="-2.6" r="3.4"/><circle cx="-10.5" cy="2.6" r="3.4"/><circle cx="10.5" cy="-2.6" r="3.4"/><circle cx="10.5" cy="2.6" r="3.4"/></g><g transform="translate(307.2 111.0) rotate(53)" fill="#f6edd3" stroke="#8a7a55" stroke-width="1.1"><rect x="-8.6" y="-2.2" width="17.3" height="4.4" rx="2"/><circle cx="-8.6" cy="-2.6" r="3.4"/><circle cx="-8.6" cy="2.6" r="3.4"/><circle cx="8.6" cy="-2.6" r="3.4"/><circle cx="8.6" cy="2.6" r="3.4"/></g><g transform="translate(318.1 149.2) rotate(86)" fill="#f6edd3" stroke="#8a7a55" stroke-width="1.1"><rect x="-9.5" y="-2.2" width="19.1" height="4.4" rx="2"/><circle cx="-9.5" cy="-2.6" r="3.4"/><circle cx="-9.5" cy="2.6" r="3.4"/><circle cx="9.5" cy="-2.6" r="3.4"/><circle cx="9.5" cy="2.6" r="3.4"/></g><g transform="translate(319.0 172.0) rotate(101)" fill="#f6edd3" stroke="#8a7a55" stroke-width="1.1"><rect x="-9.2" y="-2.2" width="18.3" height="4.4" rx="2"/><circle cx="-9.2" cy="-2.6" r="3.4"/><circle cx="-9.2" cy="2.6" r="3.4"/><circle cx="9.2" cy="-2.6" r="3.4"/><circle cx="9.2" cy="2.6" r="3.4"/></g><g transform="translate(328.0 200.0) rotate(90) scale(1.25)"><ellipse cx="0" cy="-1" rx="12" ry="10" fill="#f6edd3" stroke="#8a7a55" stroke-width="1.3"/><rect x="-8" y="3" width="16" height="9" rx="3" fill="#f6edd3" stroke="#8a7a55" stroke-width="1.3"/><path d="M-7.0 8 l1.7 4.2 l1.7 -4.2z" fill="#fff" stroke="#8a7a55" stroke-width=".7"/><path d="M-3.5 8 l1.7 4.2 l1.7 -4.2z" fill="#fff" stroke="#8a7a55" stroke-width=".7"/><path d="M0.0 8 l1.7 4.2 l1.7 -4.2z" fill="#fff" stroke="#8a7a55" stroke-width=".7"/><path d="M3.5 8 l1.7 4.2 l1.7 -4.2z" fill="#fff" stroke="#8a7a55" stroke-width=".7"/><path d="M7.0 8 l1.7 4.2 l1.7 -4.2z" fill="#fff" stroke="#8a7a55" stroke-width=".7"/><circle cx="-4.6" cy="-2.2" r="3" fill="#2b1d0e"/><circle cx="4.6" cy="-2.2" r="3" fill="#2b1d0e"/><circle cx="-4.6" cy="-2.2" r="1" fill="#ff7a2f"/><circle cx="4.6" cy="-2.2" r="1" fill="#ff7a2f"/><path d="M-1.4 3.2 l1.4 -2.4 l1.4 2.4z" fill="#2b1d0e"/></g><g transform="translate(200.0 328.0) rotate(180) scale(1.25)"><ellipse cx="0" cy="-1" rx="12" ry="10" fill="#f6edd3" stroke="#8a7a55" stroke-width="1.3"/><rect x="-8" y="3" width="16" height="9" rx="3" fill="#f6edd3" stroke="#8a7a55" stroke-width="1.3"/><path d="M-7.0 8 l1.7 4.2 l1.7 -4.2z" fill="#fff" stroke="#8a7a55" stroke-width=".7"/><path d="M-3.5 8 l1.7 4.2 l1.7 -4.2z" fill="#fff" stroke="#8a7a55" stroke-width=".7"/><path d="M0.0 8 l1.7 4.2 l1.7 -4.2z" fill="#fff" stroke="#8a7a55" stroke-width=".7"/><path d="M3.5 8 l1.7 4.2 l1.7 -4.2z" fill="#fff" stroke="#8a7a55" stroke-width=".7"/><path d="M7.0 8 l1.7 4.2 l1.7 -4.2z" fill="#fff" stroke="#8a7a55" stroke-width=".7"/><circle cx="-4.6" cy="-2.2" r="3" fill="#2b1d0e"/><circle cx="4.6" cy="-2.2" r="3" fill="#2b1d0e"/><circle cx="-4.6" cy="-2.2" r="1" fill="#ff7a2f"/><circle cx="4.6" cy="-2.2" r="1" fill="#ff7a2f"/><path d="M-1.4 3.2 l1.4 -2.4 l1.4 2.4z" fill="#2b1d0e"/></g><g transform="translate(72.0 200.0) rotate(270) scale(1.25)"><ellipse cx="0" cy="-1" rx="12" ry="10" fill="#f6edd3" stroke="#8a7a55" stroke-width="1.3"/><rect x="-8" y="3" width="16" height="9" rx="3" fill="#f6edd3" stroke="#8a7a55" stroke-width="1.3"/><path d="M-7.0 8 l1.7 4.2 l1.7 -4.2z" fill="#fff" stroke="#8a7a55" stroke-width=".7"/><path d="M-3.5 8 l1.7 4.2 l1.7 -4.2z" fill="#fff" stroke="#8a7a55" stroke-width=".7"/><path d="M0.0 8 l1.7 4.2 l1.7 -4.2z" fill="#fff" stroke="#8a7a55" stroke-width=".7"/><path d="M3.5 8 l1.7 4.2 l1.7 -4.2z" fill="#fff" stroke="#8a7a55" stroke-width=".7"/><path d="M7.0 8 l1.7 4.2 l1.7 -4.2z" fill="#fff" stroke="#8a7a55" stroke-width=".7"/><circle cx="-4.6" cy="-2.2" r="3" fill="#2b1d0e"/><circle cx="4.6" cy="-2.2" r="3" fill="#2b1d0e"/><circle cx="-4.6" cy="-2.2" r="1" fill="#ff7a2f"/><circle cx="4.6" cy="-2.2" r="1" fill="#ff7a2f"/><path d="M-1.4 3.2 l1.4 -2.4 l1.4 2.4z" fill="#2b1d0e"/></g><g transform="translate(200.0 72.0) rotate(0) scale(1.25)"><ellipse cx="0" cy="-1" rx="12" ry="10" fill="#f6edd3" stroke="#8a7a55" stroke-width="1.3"/><rect x="-8" y="3" width="16" height="9" rx="3" fill="#f6edd3" stroke="#8a7a55" stroke-width="1.3"/><path d="M-7.0 8 l1.7 4.2 l1.7 -4.2z" fill="#fff" stroke="#8a7a55" stroke-width=".7"/><path d="M-3.5 8 l1.7 4.2 l1.7 -4.2z" fill="#fff" stroke="#8a7a55" stroke-width=".7"/><path d="M0.0 8 l1.7 4.2 l1.7 -4.2z" fill="#fff" stroke="#8a7a55" stroke-width=".7"/><path d="M3.5 8 l1.7 4.2 l1.7 -4.2z" fill="#fff" stroke="#8a7a55" stroke-width=".7"/><path d="M7.0 8 l1.7 4.2 l1.7 -4.2z" fill="#fff" stroke="#8a7a55" stroke-width=".7"/><circle cx="-4.6" cy="-2.2" r="3" fill="#2b1d0e"/><circle cx="4.6" cy="-2.2" r="3" fill="#2b1d0e"/><circle cx="-4.6" cy="-2.2" r="1" fill="#ff7a2f"/><circle cx="4.6" cy="-2.2" r="1" fill="#ff7a2f"/><path d="M-1.4 3.2 l1.4 -2.4 l1.4 2.4z" fill="#2b1d0e"/></g></svg>